<svg width="25" height="25" viewBox="0 0 25 25" fill="none" xmlns="http://www.w3.org/2000/svg">
  <path d="M22.5475 20.7352C22.5475 23.0869 20.6344 25 18.2828 25H6.71727C4.36563 25 2.45251 23.0869 2.45251 20.7352C2.45251 19.7654 3.23873 18.9792 4.20859 18.9792C5.17845 18.9792 5.96467 19.7654 5.96467 20.7352C5.96467 21.1502 6.30233 21.4878 6.71727 21.4878H18.2828C18.6977 21.4878 19.0354 21.1502 19.0354 20.7352C19.0354 19.7654 19.8216 18.9792 20.7915 18.9792C21.7613 18.9792 22.5475 19.7654 22.5475 20.7352ZM11.2585 17.2105C11.5881 17.5397 12.0347 17.7248 12.5003 17.7248C12.9659 17.7248 13.4124 17.5397 13.7421 17.2105L18.9265 12.0256C19.6124 11.3397 19.6124 10.2279 18.9265 9.54202C18.2406 8.85664 17.1283 8.85614 16.4434 9.54202L14.2569 11.7286V1.75608C14.2569 0.78622 13.4706 0 12.5008 0C11.5309 0 10.7447 0.78622 10.7447 1.75608V11.7291L8.55764 9.54202C7.87176 8.85664 6.75992 8.85664 6.07404 9.54202C5.38817 10.2279 5.38817 11.3397 6.07404 12.0256L11.2585 17.2105Z" fill="white" />
</svg>