<svg width="25" height="24" viewBox="0 0 25 24" fill="none" xmlns="http://www.w3.org/2000/svg">
  <path d="M23.1862 21.5752L23.1861 21.5751L17.6896 16.0829C19.0257 14.4949 19.8349 12.4492 19.8349 10.2117C19.8349 5.17704 15.7393 1.08594 10.7091 1.08594C5.67894 1.08594 1.58331 5.17704 1.58331 10.2117C1.58331 15.2464 5.67894 19.3375 10.7091 19.3375C12.9423 19.3375 14.992 18.5283 16.5803 17.1921L22.0726 22.6844C22.2259 22.8378 22.4256 22.9149 22.6294 22.9149C22.8332 22.9149 23.0328 22.8378 23.1862 22.6844C23.4935 22.3771 23.4935 21.8825 23.1862 21.5752ZM18.2647 10.2117C18.2647 14.3761 14.8735 17.7673 10.7091 17.7673C6.54468 17.7673 3.15347 14.3761 3.15347 10.2117C3.15347 6.04731 6.54468 2.6561 10.7091 2.6561C14.8736 2.6561 18.2647 6.04303 18.2647 10.2117Z" fill="black" stroke="black" stroke-width="0.5" />
</svg>